<svg width="178" height="46" viewBox="0 0 178 46" fill="none" xmlns="http://www.w3.org/2000/svg">
<g clip-path="url(#clip0_990_931)">
<path d="M35.3993 11.8356C35.3993 10.9562 34.6882 10.2452 33.8089 10.2452C32.9295 10.2452 32.2185 10.9562 32.2185 11.8356C32.2185 12.4877 32.614 13.0473 33.1778 13.2914V14.9491L28.5875 19.2028L28.4528 28.5559L26.3154 26.8435V13.7121L24.1486 11.4317C24.2286 11.2423 24.2748 11.032 24.2748 10.809C24.2748 9.92963 23.5638 9.21858 22.6844 9.21858C21.8051 9.21858 21.094 9.92963 21.094 10.809C21.094 11.6883 21.8051 12.3994 22.6844 12.3994C22.878 12.3994 23.0589 12.3615 23.2272 12.2984L25.0532 14.217V26.8729L22.1669 29.5447C21.094 28.5769 19.6887 27.3358 19.1586 26.8687L19.2512 17.9826C19.8234 17.7428 20.2231 17.1748 20.2231 16.5185C20.2231 15.6391 19.512 14.9281 18.6327 14.9281C17.7533 14.9281 17.0423 15.6391 17.0423 16.5185C17.0423 17.1664 17.4294 17.7218 17.9847 17.97L17.8922 26.8393L15.5907 28.5938V14.5326L19.4573 10.8847V7.3084C20.0211 7.06437 20.4166 6.50479 20.4166 5.85264C20.4166 4.97328 19.7056 4.26223 18.8262 4.26223C17.9469 4.26223 17.2358 4.97328 17.2358 5.85264C17.2358 6.50479 17.6313 7.06437 18.1951 7.3084V10.3378L15.5907 12.7949V11.7935L12.818 9.08394V6.04618C13.3818 5.80215 13.7773 5.24256 13.7773 4.59041C13.7773 3.71106 13.0663 3 12.1869 3C11.3076 3 10.6007 3.71106 10.6007 4.59041C10.6007 5.24256 10.9962 5.80215 11.56 6.04618V9.61407L14.3327 12.3237V30.0243L21.9397 42.9958L29.6099 30.1758L29.6982 30.0327L29.8455 19.7582L34.4442 15.4961V13.2872C35.008 13.0431 35.4035 12.4835 35.4035 11.8314L35.3993 11.8356ZM22.1753 31.2529L25.7138 27.9795L28.2424 30.0075L24.2538 36.6762H19.693L15.7927 30.0201L18.498 27.9627C19.2133 28.5938 20.7574 29.9612 21.7504 30.8616L22.1795 31.2487L22.1753 31.2529ZM20.4335 37.9385H23.4965L21.9481 40.526L20.4293 37.9385H20.4335Z" fill="url(#paint0_linear_990_931)"/>
</g>
<path d="M44.6793 29.8C43.3193 29.8 42.2726 29.5067 41.5393 28.92C40.806 28.32 40.4326 27.52 40.4193 26.52H41.8193C41.846 27.0267 42.0726 27.4867 42.4993 27.9C42.9393 28.3133 43.666 28.52 44.6793 28.52C45.626 28.52 46.3326 28.3267 46.7993 27.94C47.2793 27.54 47.5193 27.06 47.5193 26.5C47.5193 25.98 47.3193 25.58 46.9193 25.3C46.5326 25.0067 45.966 24.82 45.2193 24.74L44.0193 24.62C43.0593 24.5133 42.2793 24.22 41.6793 23.74C41.0926 23.2467 40.7993 22.5733 40.7993 21.72C40.7993 21.0933 40.9593 20.5467 41.2793 20.08C41.5993 19.6133 42.046 19.2533 42.6193 19C43.206 18.7333 43.8926 18.6 44.6793 18.6C45.8126 18.6 46.7326 18.8667 47.4393 19.4C48.1593 19.9333 48.526 20.6933 48.5393 21.68H47.1393C47.126 21.1733 46.9126 20.7467 46.4993 20.4C46.086 20.0533 45.4793 19.88 44.6793 19.88C43.8526 19.88 43.2326 20.06 42.8193 20.42C42.4193 20.78 42.2193 21.22 42.2193 21.74C42.2193 22.18 42.3726 22.5467 42.6793 22.84C42.986 23.12 43.466 23.2933 44.1193 23.36L45.3193 23.48C46.386 23.6 47.2526 23.9067 47.9193 24.4C48.5993 24.8933 48.9393 25.6 48.9393 26.52C48.9393 27.1467 48.7593 27.7133 48.3993 28.22C48.0526 28.7133 47.5593 29.1 46.9193 29.38C46.2793 29.66 45.5326 29.8 44.6793 29.8ZM52.4852 29.5V18.92H53.9652V29.5H52.4852ZM50.7852 20.12V18.92H53.9652V20.12H50.7852ZM52.8052 16.96C52.4452 16.96 52.1719 16.8667 51.9852 16.68C51.8119 16.48 51.7252 16.2333 51.7252 15.94C51.7252 15.6467 51.8119 15.4067 51.9852 15.22C52.1719 15.02 52.4452 14.92 52.8052 14.92C53.1652 14.92 53.4319 15.02 53.6052 15.22C53.7786 15.4067 53.8652 15.6467 53.8652 15.94C53.8652 16.2333 53.7786 16.48 53.6052 16.68C53.4319 16.8667 53.1652 16.96 52.8052 16.96ZM64.3418 29.5V26.32H64.1018V22.56C64.1018 21.7733 63.8951 21.1733 63.4818 20.76C63.0685 20.3333 62.4285 20.12 61.5618 20.12C61.1618 20.12 60.7551 20.1267 60.3418 20.14C59.9418 20.1533 59.5551 20.1733 59.1818 20.2C58.8218 20.2133 58.5018 20.2333 58.2218 20.26V18.94C58.5151 18.9133 58.8151 18.8867 59.1218 18.86C59.4285 18.8333 59.7418 18.82 60.0618 18.82C60.3951 18.8067 60.7151 18.8 61.0218 18.8C62.1018 18.8 62.9685 18.9333 63.6218 19.2C64.2885 19.4667 64.7751 19.8867 65.0818 20.46C65.3885 21.02 65.5418 21.7667 65.5418 22.7V29.5H64.3418ZM60.7618 29.78C60.0151 29.78 59.3551 29.6467 58.7818 29.38C58.2085 29.1133 57.7618 28.7267 57.4418 28.22C57.1351 27.7133 56.9818 27.1 56.9818 26.38C56.9818 25.6733 57.1418 25.0733 57.4618 24.58C57.7951 24.0867 58.2685 23.7133 58.8818 23.46C59.5085 23.1933 60.2618 23.06 61.1418 23.06H64.2418V24.2H61.0418C60.2018 24.2 59.5551 24.4067 59.1018 24.82C58.6618 25.22 58.4418 25.7467 58.4418 26.4C58.4418 27.0667 58.6751 27.6 59.1418 28C59.6085 28.3867 60.2418 28.58 61.0418 28.58C61.5351 28.58 62.0085 28.4933 62.4618 28.32C62.9151 28.1333 63.2951 27.8267 63.6018 27.4C63.9085 26.96 64.0751 26.36 64.1018 25.6L64.5418 26.22C64.4885 27.0067 64.3018 27.6667 63.9818 28.2C63.6618 28.72 63.2285 29.1133 62.6818 29.38C62.1351 29.6467 61.4951 29.78 60.7618 29.78ZM73.9565 33.5V18.92H75.1565V23.46L74.7965 23.5C74.8498 22.4333 75.0765 21.5333 75.4765 20.8C75.8898 20.0667 76.4431 19.5133 77.1365 19.14C77.8431 18.7533 78.6298 18.56 79.4965 18.56C80.2698 18.56 80.9698 18.7133 81.5965 19.02C82.2365 19.3133 82.7765 19.72 83.2165 20.24C83.6698 20.7467 84.0098 21.3333 84.2365 22C84.4765 22.6533 84.5965 23.34 84.5965 24.06V24.34C84.5965 25.06 84.4765 25.7533 84.2365 26.42C83.9965 27.0733 83.6498 27.66 83.1965 28.18C82.7565 28.6867 82.2165 29.0933 81.5765 29.4C80.9498 29.6933 80.2431 29.84 79.4565 29.84C78.6165 29.84 77.8431 29.6533 77.1365 29.28C76.4431 28.8933 75.8765 28.3267 75.4365 27.58C75.0098 26.8333 74.7765 25.9133 74.7365 24.82L75.4565 26.32V33.5H73.9565ZM79.2565 28.52C80.0565 28.52 80.7431 28.3333 81.3165 27.96C81.8898 27.5733 82.3298 27.0533 82.6365 26.4C82.9431 25.7333 83.0965 25 83.0965 24.2C83.0965 23.3733 82.9365 22.64 82.6165 22C82.3098 21.3467 81.8698 20.8333 81.2965 20.46C80.7231 20.0733 80.0431 19.88 79.2565 19.88C78.5365 19.88 77.8831 20.04 77.2965 20.36C76.7098 20.68 76.2431 21.1333 75.8965 21.72C75.5631 22.2933 75.3965 22.9733 75.3965 23.76V24.74C75.3965 25.4867 75.5631 26.1467 75.8965 26.72C76.2431 27.28 76.7098 27.72 77.2965 28.04C77.8831 28.36 78.5365 28.52 79.2565 28.52ZM87.6284 29.5V18.92H88.8284V23.34H88.7084C88.7084 21.7933 89.0484 20.6533 89.7284 19.92C90.4084 19.1733 91.475 18.8 92.9284 18.8H93.2684V20.16H92.6484C91.5017 20.16 90.6284 20.46 90.0284 21.06C89.4284 21.6467 89.1284 22.5133 89.1284 23.66V29.5H87.6284ZM99.978 29.84C99.0714 29.84 98.2847 29.6867 97.618 29.38C96.9514 29.06 96.4047 28.64 95.978 28.12C95.5514 27.5867 95.2314 26.9933 95.018 26.34C94.818 25.6867 94.718 25.0133 94.718 24.32V24.04C94.718 23.36 94.818 22.6933 95.018 22.04C95.2314 21.3867 95.5514 20.8 95.978 20.28C96.4047 19.76 96.938 19.3467 97.578 19.04C98.2314 18.72 98.9914 18.56 99.858 18.56C100.965 18.56 101.885 18.8067 102.618 19.3C103.365 19.7933 103.925 20.4267 104.298 21.2C104.671 21.96 104.858 22.78 104.858 23.66V24.44H95.398V23.28H103.818L103.438 23.86C103.438 23.0733 103.298 22.3867 103.018 21.8C102.751 21.2 102.351 20.7333 101.818 20.4C101.298 20.0533 100.645 19.88 99.858 19.88C99.0314 19.88 98.3447 20.0733 97.798 20.46C97.2514 20.8467 96.838 21.36 96.558 22C96.2914 22.64 96.158 23.3667 96.158 24.18C96.158 24.98 96.2914 25.7133 96.558 26.38C96.838 27.0333 97.258 27.5533 97.818 27.94C98.3914 28.3267 99.1114 28.52 99.978 28.52C100.898 28.52 101.645 28.3133 102.218 27.9C102.791 27.4733 103.145 26.9733 103.278 26.4H104.678C104.545 27.1067 104.265 27.72 103.838 28.24C103.411 28.7467 102.871 29.14 102.218 29.42C101.565 29.7 100.818 29.84 99.978 29.84ZM112.206 29.84C111.312 29.84 110.532 29.6867 109.866 29.38C109.212 29.06 108.666 28.6333 108.226 28.1C107.786 27.5533 107.452 26.9533 107.226 26.3C107.012 25.6467 106.906 24.9867 106.906 24.32V24.04C106.906 23.36 107.012 22.7 107.226 22.06C107.452 21.4067 107.786 20.82 108.226 20.3C108.666 19.7667 109.212 19.3467 109.866 19.04C110.532 18.72 111.299 18.56 112.166 18.56C113.046 18.56 113.826 18.72 114.506 19.04C115.199 19.36 115.759 19.8133 116.186 20.4C116.612 20.9867 116.866 21.68 116.946 22.48H115.506C115.386 21.7467 115.039 21.14 114.466 20.66C113.906 20.1667 113.139 19.92 112.166 19.92C111.326 19.92 110.626 20.1133 110.066 20.5C109.519 20.8733 109.106 21.3867 108.826 22.04C108.546 22.68 108.406 23.3933 108.406 24.18C108.406 24.9533 108.546 25.6733 108.826 26.34C109.106 26.9933 109.526 27.52 110.086 27.92C110.646 28.3067 111.352 28.5 112.206 28.5C112.859 28.5 113.426 28.3867 113.906 28.16C114.399 27.92 114.792 27.6 115.086 27.2C115.392 26.8 115.572 26.36 115.626 25.88H117.066C117.012 26.68 116.759 27.38 116.306 27.98C115.866 28.5667 115.292 29.0267 114.586 29.36C113.879 29.68 113.086 29.84 112.206 29.84ZM120.376 29.5V18.92H121.856V29.5H120.376ZM118.676 20.12V18.92H121.856V20.12H118.676ZM120.696 16.96C120.336 16.96 120.063 16.8667 119.876 16.68C119.703 16.48 119.616 16.2333 119.616 15.94C119.616 15.6467 119.703 15.4067 119.876 15.22C120.063 15.02 120.336 14.92 120.696 14.92C121.056 14.92 121.323 15.02 121.496 15.22C121.669 15.4067 121.756 15.6467 121.756 15.94C121.756 16.2333 121.669 16.48 121.496 16.68C121.323 16.8667 121.056 16.96 120.696 16.96ZM129.132 29.8C127.772 29.8 126.726 29.5067 125.992 28.92C125.259 28.32 124.886 27.52 124.872 26.52H126.272C126.299 27.0267 126.526 27.4867 126.952 27.9C127.392 28.3133 128.119 28.52 129.132 28.52C130.079 28.52 130.786 28.3267 131.252 27.94C131.732 27.54 131.972 27.06 131.972 26.5C131.972 25.98 131.772 25.58 131.372 25.3C130.986 25.0067 130.419 24.82 129.672 24.74L128.472 24.62C127.512 24.5133 126.732 24.22 126.132 23.74C125.546 23.2467 125.252 22.5733 125.252 21.72C125.252 21.0933 125.412 20.5467 125.732 20.08C126.052 19.6133 126.499 19.2533 127.072 19C127.659 18.7333 128.346 18.6 129.132 18.6C130.266 18.6 131.186 18.8667 131.892 19.4C132.612 19.9333 132.979 20.6933 132.992 21.68H131.592C131.579 21.1733 131.366 20.7467 130.952 20.4C130.539 20.0533 129.932 19.88 129.132 19.88C128.306 19.88 127.686 20.06 127.272 20.42C126.872 20.78 126.672 21.22 126.672 21.74C126.672 22.18 126.826 22.5467 127.132 22.84C127.439 23.12 127.919 23.2933 128.572 23.36L129.772 23.48C130.839 23.6 131.706 23.9067 132.372 24.4C133.052 24.8933 133.392 25.6 133.392 26.52C133.392 27.1467 133.212 27.7133 132.852 28.22C132.506 28.7133 132.012 29.1 131.372 29.38C130.732 29.66 129.986 29.8 129.132 29.8ZM136.938 29.5V18.92H138.418V29.5H136.938ZM135.238 20.12V18.92H138.418V20.12H135.238ZM137.258 16.96C136.898 16.96 136.625 16.8667 136.438 16.68C136.265 16.48 136.178 16.2333 136.178 15.94C136.178 15.6467 136.265 15.4067 136.438 15.22C136.625 15.02 136.898 14.92 137.258 14.92C137.618 14.92 137.885 15.02 138.058 15.22C138.232 15.4067 138.318 15.6467 138.318 15.94C138.318 16.2333 138.232 16.48 138.058 16.68C137.885 16.8667 137.618 16.96 137.258 16.96ZM147.095 29.84C146.188 29.84 145.388 29.6867 144.695 29.38C144.015 29.06 143.435 28.64 142.955 28.12C142.488 27.5867 142.128 26.9933 141.875 26.34C141.635 25.6867 141.515 25.02 141.515 24.34V24.06C141.515 23.38 141.642 22.7133 141.895 22.06C142.148 21.3933 142.515 20.8 142.995 20.28C143.475 19.76 144.055 19.3467 144.735 19.04C145.428 18.72 146.215 18.56 147.095 18.56C147.988 18.56 148.775 18.72 149.455 19.04C150.148 19.3467 150.735 19.76 151.215 20.28C151.695 20.8 152.055 21.3933 152.295 22.06C152.548 22.7133 152.675 23.38 152.675 24.06V24.34C152.675 25.02 152.555 25.6867 152.315 26.34C152.075 26.9933 151.715 27.5867 151.235 28.12C150.768 28.64 150.188 29.06 149.495 29.38C148.802 29.6867 148.002 29.84 147.095 29.84ZM147.095 28.5C147.975 28.5 148.715 28.3067 149.315 27.92C149.928 27.52 150.395 27 150.715 26.36C151.035 25.7067 151.195 24.9867 151.195 24.2C151.195 23.4 151.028 22.68 150.695 22.04C150.375 21.3867 149.908 20.8733 149.295 20.5C148.682 20.1133 147.948 19.92 147.095 19.92C146.255 19.92 145.528 20.1133 144.915 20.5C144.302 20.8733 143.828 21.3867 143.495 22.04C143.175 22.68 143.015 23.4 143.015 24.2C143.015 24.9867 143.175 25.7067 143.495 26.36C143.815 27 144.275 27.52 144.875 27.92C145.488 28.3067 146.228 28.5 147.095 28.5ZM155.734 29.5V18.92H156.934V23.36H156.694C156.694 22.3733 156.84 21.5267 157.134 20.82C157.427 20.1133 157.867 19.5667 158.454 19.18C159.04 18.7933 159.78 18.6 160.674 18.6H160.734C162.067 18.6 163.06 19.02 163.714 19.86C164.367 20.6867 164.694 21.8533 164.694 23.36V29.5H163.214V23.04C163.214 22.12 162.96 21.38 162.454 20.82C161.947 20.26 161.24 19.98 160.334 19.98C159.4 19.98 158.647 20.2733 158.074 20.86C157.514 21.4333 157.234 22.1933 157.234 23.14V29.5H155.734Z" fill="#FCF8FC"/>
<defs>
<linearGradient id="paint0_linear_990_931" x1="23.0021" y1="3" x2="23.0021" y2="42.9958" gradientUnits="userSpaceOnUse">
<stop stop-color="#0E51FF"/>
<stop offset="0.52" stop-color="#0D87EB"/>
<stop offset="1" stop-color="#0C8ED7"/>
<stop offset="1" stop-color="#0C9AD7"/>
</linearGradient>
<clipPath id="clip0_990_931">
<rect width="24.7986" height="40" fill="white" transform="translate(10.6007 3)"/>
</clipPath>
</defs>
</svg>
